<svg width="72" height="72" fill="none" xmlns="http://www.w3.org/2000/svg"><circle cx="44" cy="44" r="28" fill="#2C6269"/><path fill-rule="evenodd" clip-rule="evenodd" d="M44.3333 4.6667C44.3333 2.093 46.4263 0 49 0c2.5737 0 4.6667 2.093 4.6667 4.6667 0 2.5737-2.093 4.6667-4.6667 4.6667a4.6392 4.6392 0 0 1-2.3697-.6473l-7.6109 7.6109a4.6393 4.6393 0 0 1 .6473 2.3697c0 2.5737-2.093 4.6667-4.6667 4.6667-2.5737 0-4.6667-2.093-4.6667-4.6667 0-.2635.0219-.522.0641-.7737l-5.3728-1.5322c-.8117 1.3788-2.3117 2.3059-4.0246 2.3059a4.6427 4.6427 0 0 1-2.8019-.9367l-7.117 5.6746a4.6391 4.6391 0 0 1 .5856 2.2621c0 2.5737-2.093 4.6667-4.6667 4.6667-2.5737 0-4.6667-2.093-4.6667-4.6667C2.3333 23.093 4.4263 21 7 21c.9049 0 1.7503.2587 2.4663.7061l7.2741-5.7999A4.6399 4.6399 0 0 1 16.3333 14c0-2.5737 2.093-4.6667 4.6667-4.6667 2.5737 0 4.6667 2.093 4.6667 4.6667 0 .0389-.0005.0777-.0014.1165l5.7003 1.6255C32.2217 14.6803 33.5327 14 35 14a4.639 4.639 0 0 1 2.3697.6473l7.6109-7.611a4.639 4.639 0 0 1-.6473-2.3696ZM19.2225 15.5101a1.1883 1.1883 0 0 0-.0891-.1114A2.322 2.322 0 0 1 18.6667 14c0-1.2857 1.0453-2.3333 2.3333-2.3333S23.3333 12.7144 23.3333 14c0 1.2857-1.0453 2.3333-2.3333 2.3333-.7118 0-1.3494-.32-1.7775-.8232ZM8.6129 23.982c-.4191-.4015-.9874-.6486-1.6129-.6486-1.288 0-2.3333 1.0476-2.3333 2.3333C4.6667 26.9523 5.712 28 7 28s2.3333-1.0477 2.3333-2.3333c0-.6246-.2467-1.193-.6481-1.6124a1.1987 1.1987 0 0 1-.0723-.0723ZM47.3975 6.3613a1.2206 1.2206 0 0 0-.092-.092c-.3959-.4184-.6388-.9829-.6388-1.6026 0-1.2857 1.0453-2.3333 2.3333-2.3333s2.3333 1.0477 2.3333 2.3333C51.3333 5.9523 50.288 7 49 7a2.3242 2.3242 0 0 1-1.6025-.6387ZM52.5 18.6667c.644 0 1.1667.5226 1.1667 1.1667v33.8333h1.1666c.644 0 1.1667.5226 1.1668 1.1666 0 .644-.5227 1.1667-1.1667 1.1667h-2.3175l-.0159.0001h-7L45.4841 56h-6.9682l-.0159.0001h-7L31.4841 56h-6.9682l-.0159.0001h-7L17.4841 56H1.1667C.5227 56 0 55.4773 0 54.8333s.5227-1.1666 1.1667-1.1666h1.1666V40.8334c0-.644.5227-1.1667 1.1667-1.1667h7c.644 0 1.1667.5226 1.1667 1.1666v12.8334h4.6666v-24.5c0-.644.5227-1.1667 1.1667-1.1667h7c.644 0 1.1667.5227 1.1667 1.1667v24.5h4.6666V33.8334c0-.644.5227-1.1667 1.1667-1.1667h7c.644 0 1.1667.5226 1.1667 1.1667v19.8333h4.6666V19.8334c0-.644.5227-1.1667 1.1667-1.1667h7ZM51.3333 21v32.6667h-4.6667V21h4.6667Zm-14 32.6667V35h-4.6667v18.6667h4.6667ZM18.6666 30.3333h4.6667v23.3334h-4.6667V30.3333ZM9.3334 53.6667V42H4.6667v11.6667h4.6667ZM35 21c-1.288 0-2.3333-1.0477-2.3333-2.3333 0-1.2857 1.0453-2.3333 2.3333-2.3333s2.3333 1.0477 2.3333 2.3333C37.3333 19.9523 36.288 21 35 21Z" fill="#79C8C7"/></svg>