<svg width="72" height="72" fill="none" xmlns="http://www.w3.org/2000/svg"><circle cx="44" cy="44" r="28" fill="#2C6269"/><path fill-rule="evenodd" clip-rule="evenodd" d="M14.4958 0h14c5.6607 0 10.2667 4.606 10.2667 10.2666v4.6667c2.0589 0 3.7333 1.6745 3.7333 3.7334S40.8214 22.4 38.7625 22.4H38.55c-.2887 3.6674-2.3525 6.8747-5.3877 8.701v1.5657h2.9495c2.4911 0 4.5174 2.0263 4.5173 4.5175a4.4171 4.4171 0 0 1-.0028.2092l.1213.008c4.216.561 7.3482 4.1413 7.3483 8.3319V56h-1.8667V45.7334c0-3.2601-2.436-6.0443-5.6682-6.4754l-.4047-.0257a4.5616 4.5616 0 0 1-.2804.4849l-4.8468 7.2341V56h-1.8668V42.9565c-1.6038 1.1884-3.557 1.8435-5.5998 1.8435-2.0432 0-3.9963-.6549-5.6-1.8429V56h-1.8667v-9.0493l-4.8448-7.2309a4.5765 4.5765 0 0 1-.2821-.4872l-.4666.0308c-3.1705.4256-5.6065 3.2098-5.6065 6.4699V56H7.029V45.7333c0-4.1907 3.1322-7.77 7.2874-8.3263l.1817-.0124a4.604 4.604 0 0 1-.0032-.22c0-2.4817 2.0262-4.508 4.5173-4.508h2.9502v-1.5351c-2.6693-1.5806-4.6596-4.2689-5.2425-7.5545a10.9614 10.9614 0 0 1-.1297-.9866l-.0147-.1904h-.2131c-2.059 0-3.7333-1.6745-3.7333-3.7334s1.6743-3.7333 3.7333-3.7333h.0014l-.0013-4.3642c-2.2055-1.0503-3.7334-3.3012-3.7334-5.9025 0-.5152.4181-.9333.9333-.9333h.5011a3.706 3.706 0 0 1-.5011-1.8667V.9333c0-.5152.4181-.9333.9333-.9333Zm18.6665 35.672v-1.1386h2.9495c1.4615 0 2.6507 1.19 2.6507 2.66a2.6306 2.6306 0 0 1-.4396 1.4877l-3.2938 4.9162v-6.0586a.9325.9325 0 0 0-.9333-.9334h-.1587c-.448-.0766-.7785-.4676-.7748-.9333Zm-3.649-3.1724A11.2478 11.2478 0 0 0 31.2956 32v3.6636c-.0093 1.2171.7607 2.2727 1.8667 2.6618v2.1225c-1.4309 1.5841-3.4537 2.4854-5.5998 2.4854-2.1462 0-4.169-.9014-5.6-2.4839v-2.123c1.1051-.3891 1.875-1.4438 1.8667-2.6544v-3.6584a10.971 10.971 0 0 0 3.7436.6587c.6393 0 1.289-.057 1.9405-.1727Zm-9.4175 5.0391v6.0572l-3.2918-4.913c-.294-.4415-.447-.9576-.4414-1.499-.0001-1.4615 1.1889-2.6506 2.6506-2.6506h2.9493v1.1453c.0028.4591-.3267.8502-.7747.9268h-.1587a.933.933 0 0 0-.9333.9333Zm15.0328-26.3388h1.7674l.0009 2.8612c-.7136-.6449-1.4965-1.6047-1.7683-2.8612Zm-1.8991 0c.4142 2.8414 2.6408 4.5543 3.6681 5.2046l.001 3.1228-.197 2.5442c-.2594 4.2523-3.3618 7.7869-7.5291 8.5932-4.9691.882-9.7329-2.4434-10.6158-7.4144a9.1247 9.1247 0 0 1-.1064-.8102L18.2292 19.6v-3.1968c1.0282-.6512 3.2522-2.3638 3.6661-5.2033h11.3342ZM16.3625 16.8h.0019l.0009 2.8719.0664.8614h-.0692c-1.0295 0-1.8667-.8372-1.8667-1.8667 0-1.0294.8372-1.8666 1.8667-1.8666Zm3.6338-5.6001c-.2716 1.2556-1.0539 2.2149-1.7671 2.8598v-2.9263c.3048.0438.6165.0665.9333.0665h.8338ZM38.7625 19.6v-2.8c1.0294 0 1.8667.8372 1.8667 1.8667 0 1.0294-.8372 1.8667-1.8667 1.8667h-.0713l.0713-.9334ZM14.59 5.6c.4332 2.127 2.3194 3.7333 4.5725 3.7333v.0001h17.681c-.4657-4.1944-4.031-7.4667-8.3477-7.4667H15.4291c0 1.0296.8372 1.8667 1.8667 1.8667.5151 0 .9333.4182.9333.9333 0 .5152-.4182.9333-.9333.9333H14.59Zm9.2392 12.1333c0 1.0309-.8358 1.8667-1.8667 1.8667-1.031 0-1.8667-.8358-1.8667-1.8667 0-1.031.8357-1.8667 1.8667-1.8667 1.0309 0 1.8667.8357 1.8667 1.8667ZM33.1625 19.6c1.0309 0 1.8667-.8358 1.8667-1.8667 0-1.031-.8358-1.8667-1.8667-1.8667-1.031 0-1.8667.8357-1.8667 1.8667 0 1.0309.8357 1.8667 1.8667 1.8667Zm-6.0882.9333 1.3543-3.3861-1.7332-.6935-1.8667 4.6667a.934.934 0 0 0 .0943.8699.9346.9346 0 0 0 .7729.4097h2.8v-1.8667h-1.4216Zm-1.2198 3.7334c1.4531-.001 2.8195-.5666 3.8481-1.5941l1.3197 1.3207c-1.3804 1.3794-3.2163 2.1391-5.1678 2.1401h-.1587v-1.8667h.1587ZM17.2959 47.6a.933.933 0 0 1 .9333-.9333.9331.9331 0 0 1 .9333.9333v5.6a.9331.9331 0 0 1-.9333.9333.933.933 0 0 1-.9333-.9333v-5.6Zm18.6666 0a.9324.9324 0 0 1 .9333-.9333.9324.9324 0 0 1 .9333.9333v5.6a.9325.9325 0 0 1-.9333.9333.9324.9324 0 0 1-.9333-.9333v-5.6Z" fill="#79C8C7"/></svg>