<svg width="72" height="72" fill="none" xmlns="http://www.w3.org/2000/svg"><circle cx="44" cy="44" r="28" fill="#2C6269"/><path fill-rule="evenodd" clip-rule="evenodd" d="M33.9062 53.8125c0 1.2061-.9813 2.1875-2.1874 2.1875h-7.4376c-1.2061 0-2.1874-.9814-2.1874-2.1875v-3.2654a23.1056 23.1056 0 0 1-5.8584-2.4294l-2.311 2.311c-.8532.8528-2.2409.8528-3.0937 0l-5.2594-5.2594c-.8528-.8528-.8528-2.2405 0-3.0933l2.311-2.3114a23.106 23.106 0 0 1-2.4294-5.8584H2.1875C.9814 33.9062 0 32.9249 0 31.7188v-7.4376c0-1.2061.9814-2.1874 2.1875-2.1874h3.2582a23.1056 23.1056 0 0 1 2.4267-5.8687L5.5713 13.924c-.8528-.8528-.8528-2.2405 0-3.0933l5.2594-5.2594c.8528-.8528 2.2405-.8528 3.0937 0l2.293 2.2934a23.1055 23.1055 0 0 1 5.8764-2.4395V2.1875C22.0938.9814 23.0751 0 24.2812 0h7.4376c1.2061 0 2.1874.9814 2.1874 2.1875v3.2304a23.1168 23.1168 0 0 1 5.8862 2.4366l2.2836-2.2832c.8528-.8528 2.2405-.8528 3.0933 0l5.2594 5.2594c.8528.8528.8528 2.2405 0 3.0937l-2.2832 2.2832a23.1162 23.1162 0 0 1 2.4366 5.8862h3.2304c1.2061 0 2.1875.9813 2.1875 2.1874v7.4376c0 1.2061-.9814 2.1874-2.1875 2.1874h-3.2377a23.1237 23.1237 0 0 1-2.4395 5.8764l2.293 2.2934c.8528.8528.8528 2.2405 0 3.0933l-5.259 5.2594c-.8528.8528-2.2405.8528-3.0937 0l-2.3007-2.3011a23.1174 23.1174 0 0 1-5.8687 2.4267v3.2582ZM16.0713 45.641c.2034 0 .4072.0564.5883.1717 2.0811 1.3288 4.3571 2.2726 6.7642 2.8053.5011.1111.8574.555.8574 1.0682v4.1263h7.4376v-4.1204c0-.5135.3571-.9578.8587-1.0681 2.4105-.5306 4.6899-1.4731 6.7744-2.801a1.0938 1.0938 0 0 1 1.3612.1491l2.9096 2.9096 5.259-5.259-2.9032-2.9032a1.0938 1.0938 0 0 1-.1478-1.3629c1.3334-2.0849 2.2811-4.3664 2.8155-6.7804a1.0934 1.0934 0 0 1 1.0677-.8574h4.0986v-7.4376h-4.0926a1.0934 1.0934 0 0 1-1.0681-.8587 20.9426 20.9426 0 0 0-2.8113-6.7907 1.0944 1.0944 0 0 1 .1487-1.362l2.8925-2.8925-5.259-5.259-2.8925 2.8925a1.0943 1.0943 0 0 1-1.362.1487 20.9533 20.9533 0 0 0-6.7907-2.8113 1.0934 1.0934 0 0 1-.8587-1.0681V2.1875h-7.4376v4.0986c0 .513-.3563.957-.857 1.068a20.9531 20.9531 0 0 0-6.7808 2.8152 1.0932 1.0932 0 0 1-1.3625-.1478l-2.9036-2.9031-5.259 5.2589 2.9096 2.91c.3627.3623.4247.9284.1491 1.3608-1.3279 2.0845-2.2704 4.3639-2.801 6.7744a1.0934 1.0934 0 0 1-1.0681.8587H2.1875v7.4376h4.1263c.5132 0 .957.3567 1.0682.8574.5327 2.4076 1.477 4.6831 2.8053 6.7642a1.094 1.094 0 0 1-.1487 1.3621l-2.9203 2.9202 5.259 5.2594 2.9202-2.9207a1.0943 1.0943 0 0 1 .7738-.3204Zm.637-6.3493c3.1134 3.1129 7.2025 4.6698 11.2917 4.6698 4.0892 0 8.1783-1.5569 11.2917-4.6698 4.868-4.8676 6.0729-12.2735 2.9984-18.4276-.27-.5404-.9271-.76-1.4672-.49-.5404.27-.7596.9271-.4896 1.4676 2.6532 5.3111 1.6129 11.7022-2.5882 15.9034-2.687 2.6869-6.2156 4.0302-9.7451 4.0297-3.5286-.0004-7.0581-1.3436-9.7446-4.0297-5.3735-5.3735-5.3735-14.1167 0-19.4897 4.3472-4.3477 11.1246-5.2863 16.4806-2.2828.5268.2956 1.1933.1081 1.4889-.4191.2952-.5268.1077-1.1933-.4191-1.4886-2.9762-1.6688-6.4877-2.343-9.8891-1.8978-3.5128.4597-6.697 2.0303-9.2084 4.5412-6.2262 6.2263-6.2262 16.3571 0 22.5834Zm22.0489-20.4779a1.1004 1.1004 0 0 1-.7746-.3209 1.0984 1.0984 0 0 1-.3191-.7729c0-.2879.1157-.5699.3191-.7733a1.1014 1.1014 0 0 1 .7746-.3204c.2875 0 .5695.1166.7733.3204.2034.2034.3205.4854.3205.7733 0 .2884-.1171.5696-.3205.7729a1.0994 1.0994 0 0 1-.7733.3209ZM26.4564 36.0574a1.0938 1.0938 0 0 1-.7734-.3204l-6.9166-6.9171c-.4273-.4268-.4273-1.1194 0-1.5466l3.9229-3.9234a1.0945 1.0945 0 0 1 1.5471 0l2.22 2.2204 5.3076-5.3073c.4269-.4272 1.1194-.4272 1.5467 0l3.9234 3.9234c.4268.4268.4268 1.1194 0 1.5466l-10.004 10.004a1.0952 1.0952 0 0 1-.7737.3204Zm-5.3701-8.0108 5.3701 5.37 8.4573-8.4569-2.3763-2.3763-5.3073 5.3072a1.094 1.094 0 0 1-1.5471 0l-2.2204-2.2204-2.3763 2.3764Z" fill="#79C8C7"/></svg>